<?xml version="1.0" encoding="utf-8"?>
<!-- Generator: Adobe Illustrator 23.0.3, SVG Export Plug-In . SVG Version: 6.00 Build 0)  -->
<svg version="1.1" id="Layer_1" xmlns="http://www.w3.org/2000/svg" xmlns:xlink="http://www.w3.org/1999/xlink" x="0px" y="0px"
	 viewBox="0 0 362 369" style="enable-background:new 0 0 362 369;" xml:space="preserve">
<style type="text/css">
	.st0{fill:#FFFFFF;}
</style>
<g>
	<path class="st0" d="M181.29,86c-56.89,0-103,46.11-103,103s46.11,103,103,103s103-46.11,103-103S238.17,86,181.29,86z M181.29,286
		c-53.57,0-97-43.43-97-97c0-53.57,43.43-97,97-97s97,43.43,97,97C278.29,242.57,234.86,286,181.29,286z"/>
	<g>
		<path class="st0" d="M131.77,181.02c0-17.74-0.01-35.48,0.01-53.22c0.01-6.31,1.45-7.74,7.79-7.75
			c17.74-0.02,35.48,0.04,53.22-0.05c2.83-0.02,4.94,0.78,6.92,2.83c6.5,6.72,13.1,13.34,19.79,19.89c2.02,1.98,2.88,4.09,2.86,6.92
			c-0.1,14.85,0.06,29.71-0.13,44.55c-0.05,3.55,0.97,5.28,4.41,6.62c14.28,5.58,22.45,19.28,21.2,34.75
			c-1.16,14.32-12.25,26.65-26.82,29.83c-15.04,3.29-30.48-4.23-37.34-18.51c-1.47-3.06-3.14-4.18-6.52-4.13
			c-12.65,0.19-25.3,0.1-37.95,0.07c-5.76-0.01-7.41-1.64-7.42-7.33C131.76,217.33,131.77,199.18,131.77,181.02z M136.11,181.25
			c0,17.46,0.02,34.93-0.02,52.39c-0.01,2.76,0.3,4.87,3.9,4.84c12.38-0.09,24.75-0.05,37.13-0.02c2.4,0.01,3.5-0.86,3.28-3.45
			c-1.9-22.26,17.15-37.59,33.73-36.5c2.95,0.19,3.83-1.14,3.82-3.89c-0.07-14.03-0.07-28.05,0-42.08c0.01-2.77-0.95-4.01-3.85-3.93
			c-4.81,0.14-9.63,0.05-14.44,0.03c-5.61-0.03-5.91-0.32-5.94-5.76c-0.02-4.68-0.2-9.36,0.06-14.02c0.2-3.67-0.85-5.05-4.8-5
			c-15.81,0.22-31.63,0.08-47.44,0.09c-5.12,0-5.41,0.27-5.42,5.32C136.09,146.59,136.11,163.92,136.11,181.25z M243.54,232.45
			c0.13-16.47-12.97-29.95-29.21-30.05c-16.17-0.1-29.88,13.4-29.99,29.54c-0.11,16.22,13.3,29.91,29.46,30.08
			C230.01,262.19,243.41,248.87,243.54,232.45z M198.14,128.86c0,4.34-0.02,8.44,0.01,12.53c0.01,1.58,0.75,2.71,2.43,2.72
			c4.3,0.03,8.64,0.48,12.71-0.24C208.3,138.92,203.41,134.07,198.14,128.86z"/>
		<path class="st0" d="M176.73,161.87c-8.11,0-16.23,0.04-24.34-0.03c-1.8-0.01-4.49,0.56-4.47-2.21c0.02-2.35,2.52-2.12,4.25-2.12
			c16.64-0.04,33.28-0.04,49.92,0.01c1.71,0,4.15-0.19,4.06,2.3c-0.1,2.47-2.55,2.03-4.25,2.04
			C193.51,161.89,185.12,161.87,176.73,161.87z"/>
		<path class="st0" d="M176.64,173.32c-7.84,0-15.68,0.01-23.52-0.02c-1.23,0-2.48-0.08-3.67-0.34c-0.98-0.21-1.72-0.9-1.62-2.07
			c0.09-0.93,0.73-1.54,1.57-1.69c1.21-0.22,2.45-0.31,3.68-0.31c15.96-0.02,31.91-0.01,47.87-0.01c0.96,0,1.93-0.02,2.88,0.11
			c1.3,0.18,2.51,0.68,2.39,2.26c-0.1,1.32-1.22,1.84-2.35,1.91c-2.33,0.14-4.67,0.15-7.01,0.15
			C190.12,173.33,183.38,173.32,176.64,173.32z"/>
		<path class="st0" d="M177,195.73c-7.84,0-15.68,0-23.51,0c-1.1,0-2.2,0-3.3-0.1c-1.15-0.11-2.24-0.54-2.34-1.88
			c-0.12-1.62,1.15-2.05,2.41-2.26c0.94-0.16,1.92-0.15,2.88-0.15c15.95-0.01,31.9-0.01,47.85,0c0.69,0,1.38-0.03,2.06,0.06
			c1.5,0.2,3.31,0.31,3.13,2.41c-0.16,1.76-1.79,1.88-3.18,1.89c-8.66,0.03-17.33,0.01-25.99,0.01C177,195.71,177,195.72,177,195.73
			z"/>
		<path class="st0" d="M176.63,184.27c-8.11,0-16.22,0.04-24.32-0.03c-1.64-0.01-4.22,0.68-4.33-1.81c-0.12-2.56,2.44-2.04,4.1-2.05
			c16.63-0.04,33.25-0.03,49.88-0.02c0.69,0,1.38,0,2.06,0.08c1.17,0.14,2.24,0.58,2.17,1.97c-0.07,1.37-1.19,1.78-2.35,1.79
			c-4.53,0.06-9.07,0.07-13.6,0.08C185.7,184.28,181.16,184.28,176.63,184.27z"/>
		<path class="st0" d="M164.83,207.15c-4.52,0-9.04,0.03-13.55-0.02c-1.52-0.02-3.36-0.19-3.42-2.13c-0.06-2,1.76-2.21,3.29-2.21
			c9.03-0.03,18.07-0.04,27.1,0.01c1.53,0.01,3.34,0.25,3.2,2.28c-0.14,1.94-1.98,2.04-3.49,2.06
			C173.59,207.18,169.21,207.15,164.83,207.15z"/>
		<path class="st0" d="M160.58,218.08c-3.42,0-6.83,0.04-10.25-0.02c-1.3-0.02-2.59-0.42-2.45-2.07c0.11-1.33,1.26-1.71,2.42-1.71
			c6.97-0.03,13.94-0.03,20.9,0c1.33,0.01,2.55,0.45,2.43,2.09c-0.1,1.38-1.25,1.69-2.4,1.7
			C167.68,218.1,164.13,218.08,160.58,218.08z"/>
		<path class="st0" d="M231.65,223.45c-0.35,0.57-0.74,1.47-1.34,2.18c-5.4,6.39-10.89,12.71-16.23,19.15
			c-1.91,2.3-3.64,2.45-5.89,0.55c-3.15-2.65-6.47-5.1-9.64-7.71c-1.21-1-3.1-2.15-1.52-3.97c1.52-1.75,3-0.12,4.26,0.82
			c2.3,1.73,4.62,3.46,6.77,5.37c1.99,1.77,3.44,1.57,5.11-0.47c4.54-5.5,9.19-10.92,13.85-16.32c0.94-1.09,1.88-2.57,3.75-1.65
			C231.42,221.74,231.66,222.4,231.65,223.45z"/>
	</g>
</g>
</svg>
