<?xml version="1.0" encoding="utf-8"?>
<!-- Generator: Adobe Illustrator 23.0.3, SVG Export Plug-In . SVG Version: 6.00 Build 0)  -->
<svg version="1.1" id="Layer_1" xmlns="http://www.w3.org/2000/svg" xmlns:xlink="http://www.w3.org/1999/xlink" x="0px" y="0px"
	 viewBox="0 0 362 369" style="enable-background:new 0 0 362 369;" xml:space="preserve">
<style type="text/css">
	.st0{fill:#FFFFFF;}
</style>
<g>
	<path class="st0" d="M183,76c-56.89,0-103,46.11-103,103s46.11,103,103,103s103-46.11,103-103S239.89,76,183,76z M183,276
		c-53.57,0-97-43.43-97-97c0-53.57,43.43-97,97-97s97,43.43,97,97C280,232.57,236.57,276,183,276z"/>
	<path class="st0" d="M135.8,190.84c6.34,7.2,11.94,13.77,18.23,19.74c0.19,0.18,0.44,0.38,0.68,0.41c6.17,0.75,5.97,5.13,5.73,9.74
		c-0.2,3.74-0.12,7.5-0.03,11.24c0.07,2.64-0.92,4.02-3.69,4.02c-11.11-0.03-22.22-0.04-33.33,0.02c-3.18,0.02-3.65-1.76-3.64-4.4
		c0.06-16.2-0.01-32.4,0.05-48.6c0.04-10.1,6.96-18.36,16.14-19.45c11.55-1.38,21.16,4.75,23.74,15.09c0.76,3.03,0.7,6.1,0.72,9.18
		c0.02,5.39,0.03,5.41,5.26,5.41c13.79,0.01,27.58-0.03,41.37,0.03c5.82,0.03,9.46,3.07,9.79,7.92c0.34,5.01-2.89,9.18-7.91,9.24
		c-16.46,0.18-32.93,0.09-49.4,0.07c-2.59,0-4.54-1.37-6.23-3.21c-4.35-4.72-8.72-9.44-13.13-14.11
		C139.27,192.26,138.62,190.93,135.8,190.84z"/>
	<path class="st0" d="M157.88,163.99c-11.5,0-20.98-9.35-21.09-20.79c-0.11-11.5,9.73-21.4,21.18-21.31
		c11.59,0.09,21.04,9.75,20.97,21.43C178.87,154.97,169.69,163.99,157.88,163.99z"/>
	<path class="st0" d="M207.57,232.81c-13.1-0.01-26.21,0.05-39.31-0.03c-5.1-0.03-6.99-2.01-6.62-6.33
		c0.21-2.49,1.44-3.96,3.94-4.25c0.93-0.11,1.87-0.09,2.8-0.09c26.07-0.01,52.14-0.01,78.21,0c5.04,0,5.23,0.22,5.26,5.15
		c0.02,5.12-0.33,5.54-5.38,5.55C233.51,232.83,220.54,232.81,207.57,232.81z"/>
	<path class="st0" d="M210.1,220.18c-9.24,0-18.47,0-27.71,0c-2.83,0-5.33-0.78-5.29-4.08c0.04-3.5,2.74-4.23,5.66-4.24
		c8.7-0.03,17.4-0.02,26.11-0.02c7.9,0,15.8-0.11,23.69,0.06c3.08,0.07,4.52-1.14,5.46-3.99c4.16-12.58,8.51-25.09,12.79-37.63
		c0.35-1.01,0.64-2.05,1.07-3.03c1.01-2.3,2.64-3.97,5.3-3.02c2.75,0.98,3.33,3.26,2.42,5.92c-5.22,15.33-10.45,30.65-15.67,45.98
		c-1,2.95-3.05,4.11-6.13,4.08C228.57,220.13,219.33,220.18,210.1,220.18z"/>
</g>
</svg>
