<svg width="64" height="53" viewBox="0 0 64 53" fill="none" xmlns="http://www.w3.org/2000/svg">
<g id="Group 11">
<path id="Path 15" d="M36.8478 52.3622C37.5952 52.3832 38.3391 52.2509 39.0334 51.9735C39.7277 51.6961 40.3578 51.2794 40.8849 50.7491C42.6849 48.9711 44.4549 47.1702 46.2509 45.3922C46.7819 44.8662 47.388 44.4261 47.925 43.8981C48.302 43.5281 48.547 43.0771 48.916 42.7111C51.6313 40.0204 54.3378 37.3205 57.0358 34.6112C58.0878 33.5602 59.1211 32.4891 60.1931 31.4601C60.807 30.9707 61.3872 30.4406 61.9299 29.8732C62.8703 28.6745 63.3013 27.1538 63.1298 25.64C63.0547 24.7461 62.78 23.8806 62.3261 23.1068C61.8722 22.333 61.2507 21.6708 60.507 21.1691C59.4413 20.2654 58.4344 19.2945 57.4929 18.2621C55.3495 16.1247 53.2117 13.9827 51.079 11.8361C49.171 9.92105 47.2689 7.99801 45.3549 6.08801C43.8089 4.54501 42.29 2.97115 40.686 1.48815C40.1269 0.980129 39.473 0.587295 38.7619 0.33239C38.0508 0.0774859 37.2964 -0.0346017 36.5419 0.00255646C35.7874 0.0397146 35.0478 0.225399 34.3652 0.548943C33.6826 0.872487 33.0703 1.32756 32.5639 1.88805C31.5567 3.00694 31.0226 4.47283 31.0737 5.97741C31.1248 7.48199 31.757 8.9082 32.8378 9.95617C34.6898 11.7752 36.4918 13.6431 38.3278 15.4781C39.8718 17.0221 41.439 18.5441 42.986 20.0861C44.229 21.3231 45.4538 22.5792 46.6918 23.8212C47.3488 24.4802 48.0098 25.1351 48.6918 25.7731C49.0268 26.0881 49.029 26.3082 48.685 26.6442C46.865 28.4202 45.0691 30.221 43.2661 32.015C41.0581 34.215 38.8513 36.4151 36.6459 38.6151C35.2899 39.9691 33.872 41.2691 32.602 42.6991C31.8457 43.5243 31.3458 44.5517 31.1635 45.6561C30.9812 46.7605 31.1243 47.8941 31.5754 48.9186C32.0264 49.943 32.7659 50.8141 33.7036 51.4254C34.6412 52.0367 35.7366 52.3619 36.8559 52.3612L36.8478 52.3622Z" fill="#28A8E0"/>
<path id="Path 16" d="M0.360348 5.20794C0.31878 6.15188 0.478577 7.09395 0.829098 7.97137C1.17962 8.84879 1.7128 9.64159 2.39331 10.2971C4.06331 12.0661 5.90313 13.6629 7.58813 15.4189C9.09913 16.9939 10.6882 18.496 12.2312 20.039C13.4592 21.267 14.6683 22.514 15.8943 23.739C16.5896 24.437 17.2952 25.1243 18.0112 25.801C18.2832 26.057 18.3463 26.238 18.0413 26.539C15.5959 28.959 13.1592 31.3879 10.7312 33.8259C8.0072 36.5499 5.2982 39.2899 2.5542 41.9929C1.86141 42.6164 1.28574 43.3588 0.854244 44.185C0.320646 45.355 0.200344 46.6715 0.51318 47.9189C0.688476 48.6675 1.01132 49.3738 1.46264 49.9963C1.91396 50.6187 2.48482 51.1448 3.14184 51.5441C3.79887 51.9434 4.52894 52.2077 5.2893 52.3217C6.04966 52.4357 6.82508 52.3971 7.57031 52.2079C8.09231 52.0829 8.56327 51.674 9.15527 51.851C9.17084 51.852 9.18641 51.8488 9.20044 51.842C9.21446 51.8351 9.22654 51.8248 9.23535 51.8119C9.58535 50.9119 10.5292 50.576 11.1062 49.881C11.6832 49.186 12.3752 48.5678 13.0212 47.9208C18.3679 42.5708 23.7152 37.2216 29.0632 31.873C29.3761 31.5528 29.7138 31.2578 30.0732 30.9909C30.8207 30.4368 31.4284 29.716 31.8481 28.8857C32.2679 28.0553 32.488 27.1384 32.491 26.2079C32.4939 25.2775 32.2795 24.3593 31.865 23.5263C31.4505 22.6933 30.8472 21.9686 30.1033 21.4098C29.0683 20.5537 28.0937 19.6272 27.1863 18.6369C24.7123 16.1979 22.2672 13.728 19.8132 11.269C17.5979 9.05031 15.3844 6.83016 13.1724 4.60882C12.0954 3.53282 11.0441 2.42687 9.91113 1.40887C9.33786 0.911044 8.67193 0.531574 7.95141 0.292173C7.23089 0.0527711 6.47009 -0.0416689 5.71289 0.0140965C4.95568 0.069862 4.21698 0.27475 3.5393 0.617124C2.86163 0.959498 2.2583 1.43253 1.76416 2.00897C0.961858 2.89498 0.469318 4.01764 0.360348 5.20794Z" fill="#28A8E0"/>
</g>
</svg>
