<?xml version="1.0" encoding="utf-8"?>
<!-- Generator: Adobe Illustrator 23.0.3, SVG Export Plug-In . SVG Version: 6.00 Build 0)  -->
<svg version="1.1" id="Layer_1" xmlns="http://www.w3.org/2000/svg" xmlns:xlink="http://www.w3.org/1999/xlink" x="0px" y="0px"
	 viewBox="0 0 328 339" style="enable-background:new 0 0 328 339;" xml:space="preserve">
<style type="text/css">
	.st0{fill:#28A8E0;}
	.st1{fill:#FFFFFF;}
</style>
<g>
	<path class="st0" d="M168.5,43.96c-68.48,0-124,55.52-124,124c0,68.48,55.52,124,124,124s124-55.52,124-124
		C292.5,99.47,236.98,43.96,168.5,43.96z M168.5,270.96c-56.89,0-103-46.11-103-103s46.11-103,103-103s103,46.11,103,103
		S225.38,270.96,168.5,270.96z"/>
	<circle class="st0" cx="168.5" cy="167.96" r="97"/>
	<g>
		<path class="st1" d="M168.5,64.96c-56.89,0-103,46.11-103,103s46.11,103,103,103s103-46.11,103-103S225.38,64.96,168.5,64.96z
			 M168.5,264.96c-53.57,0-97-43.43-97-97c0-53.57,43.43-97,97-97s97,43.43,97,97C265.5,221.53,222.07,264.96,168.5,264.96z"/>
		<path class="st1" d="M170.04,97.96c0.06,0.2,0.23,0.21,0.39,0.25c3.84,1.07,6.07,4.55,5.56,8.65c-0.45,3.56-3.33,6.13-7.11,6.34
			c-3.61,0.2-7.1-2.49-7.88-6.06c-0.82-3.81,1.09-7.27,4.81-8.71c0.3-0.12,0.71-0.08,0.86-0.48
			C167.79,97.96,168.91,97.96,170.04,97.96z M172.15,105.43c0-1.86-1.58-3.33-3.56-3.31c-1.93,0.02-3.53,1.61-3.56,3.53
			c-0.03,1.89,1.49,3.36,3.49,3.39C170.46,109.07,172.15,107.4,172.15,105.43z"/>
		<path class="st1" d="M168.72,184.16c-3.35-0.09-6.45-0.32-9.45-1.28c-0.94-0.3-1.88-0.66-2.75-1.11
			c-3.11-1.62-4.06-3.53-3.57-6.99c1.18-8.32,7.16-13.23,15.59-12.83c4.19,0.2,8.02,1.27,10.96,4.49c2.81,3.08,3.81,6.82,3.74,10.88
			c-0.04,1.99-1.35,3.31-2.97,4.29c-2.43,1.46-5.14,1.97-7.9,2.3C171.08,184.05,169.78,184.08,168.72,184.16z M168.82,166.45
			c-7.04-0.01-10.7,2.86-11.71,8.85c-0.37,2.17-0.07,2.73,2.03,3.48c4.58,1.64,9.3,1.77,14.06,1.1c1.71-0.24,3.41-0.6,4.95-1.44
			c0.6-0.33,1.26-0.68,1.23-1.52c-0.13-4.42-1.51-8.57-6.88-10.03C171.16,166.51,169.78,166.43,168.82,166.45z"/>
		<path class="st1" d="M168.26,230.93c-3.77-0.07-7.51-0.41-11-2.01c-3.58-1.63-4.57-3.68-4-7.57c1.36-9.2,8.45-13.63,17.87-12.35
			c7.49,1.02,11.92,6.13,12.4,13.7c0.15,2.3-0.72,4.03-2.57,5.32c-2.38,1.65-5.12,2.24-7.91,2.62
			C171.46,230.85,169.87,231.02,168.26,230.93z M168.33,226.74c0.65,0,1.3,0.05,1.94-0.01c2.67-0.22,5.34-0.47,7.78-1.72
			c0.61-0.31,1.23-0.61,1.33-1.44c0.48-3.88-2.01-8.15-5.62-9.66c-2.43-1.02-4.96-1.11-7.51-0.86c-5.23,0.5-8.62,3.91-9.18,9.09
			c-0.22,2-0.03,2.35,1.87,3.1C161.95,226.45,165.12,226.74,168.33,226.74z"/>
		<path class="st1" d="M168.59,137.29c-3.97-0.05-7.66-0.41-11.14-1.9c-0.32-0.14-0.63-0.28-0.94-0.44
			c-3.14-1.67-4.06-3.61-3.55-7.13c1.45-9.94,9.04-13.28,16.87-12.61c4.82,0.41,8.82,2.35,11.35,6.69c1.5,2.57,2.09,5.39,2.07,8.33
			c-0.01,2.12-1.28,3.52-2.99,4.55c-2.63,1.57-5.56,2.06-8.54,2.36C170.6,137.25,169.48,137.25,168.59,137.29z M168.33,133.3
			c0.86,0,1.73,0.04,2.59-0.01c2.47-0.14,4.9-0.52,7.14-1.64c0.65-0.32,1.34-0.68,1.32-1.59c-0.1-4.63-1.75-9.04-7.8-10.2
			c-1.27-0.24-2.56-0.36-3.87-0.31c-6.07,0.25-9.64,3.22-10.59,8.83c-0.38,2.27-0.09,2.79,2.04,3.6
			C162.12,133.09,165.2,133.4,168.33,133.3z"/>
		<path class="st1" d="M212.96,220.96c5.37,0,10.73,0,16.1,0c0.47,0,0.96-0.01,1.42,0.07c1.15,0.19,1.75,0.95,1.81,2.05
			c0.05,1.04-0.46,1.85-1.51,2.16c-0.45,0.13-0.94,0.17-1.41,0.17c-10.99,0.01-21.98,0.01-32.97,0c-0.47,0-0.96-0.04-1.4-0.18
			c-1.11-0.35-1.55-1.21-1.46-2.31c0.09-1.13,0.71-1.88,1.9-1.91c2.08-0.05,4.15-0.04,6.23-0.05
			C205.44,220.96,209.2,220.96,212.96,220.96z"/>
		<path class="st1" d="M212.85,178.27c-5.54,0-11.08-0.01-16.61,0.01c-1.23,0-2.24-0.29-2.61-1.62c-0.39-1.38,0.34-2.55,1.74-2.78
			c0.42-0.07,0.86-0.05,1.29-0.05c10.82,0,21.63,0,32.45,0c0.26,0,0.52-0.01,0.78,0c1.5,0.08,2.48,1.01,2.43,2.31
			c-0.05,1.28-0.97,2.11-2.46,2.11C224.18,178.28,218.52,178.27,212.85,178.27z"/>
		<path class="st1" d="M212.89,126.78c5.67,0,11.33-0.01,17,0.01c1.44,0,2.4,0.9,2.42,2.16c0.03,1.3-0.97,2.21-2.47,2.26
			c-0.09,0-0.17,0-0.26,0c-11.12,0-22.23,0-33.35,0c-1.64,0-2.54-0.7-2.69-2.01c-0.16-1.46,0.72-2.4,2.35-2.4
			c4.93-0.02,9.86-0.01,14.79-0.01C211.42,126.78,212.15,126.78,212.89,126.78z"/>
		<path class="st1" d="M176.04,152.56c-0.02,4.41-3.29,7.76-7.55,7.72c-4.27-0.04-7.72-3.57-7.65-7.85c0.06-4.4,3.41-7.71,7.78-7.68
			C172.96,144.78,176.06,148.05,176.04,152.56z M168.6,156.39c1.92-0.01,3.54-1.64,3.55-3.57c0.01-1.93-1.6-3.59-3.51-3.62
			c-1.93-0.03-3.63,1.69-3.61,3.66C165.05,154.8,166.67,156.4,168.6,156.39z"/>
		<path class="st1" d="M176.04,199.06c-0.01,4.43-3.23,7.76-7.5,7.74c-4.3-0.02-7.72-3.48-7.7-7.79c0.03-4.39,3.37-7.73,7.74-7.71
			C172.94,191.32,176.05,194.55,176.04,199.06z M168.58,195.79c-1.96,0-3.54,1.58-3.55,3.54c-0.01,1.96,1.56,3.57,3.5,3.59
			c2.01,0.02,3.64-1.6,3.62-3.6C172.13,197.36,170.54,195.79,168.58,195.79z"/>
		<path class="st1" d="M208.33,212.07c3.89,0,7.78,0,11.67,0.01c0.51,0,1.04,0.01,1.54,0.13c1.07,0.26,1.59,1.03,1.6,2.08
			c0.01,1.05-0.5,1.83-1.56,2.12c-0.41,0.11-0.85,0.14-1.28,0.14c-7.99,0.01-15.99,0.01-23.98,0c-0.22,0-0.43,0-0.65-0.02
			c-1.35-0.16-2.18-1.04-2.17-2.29c0.02-1.29,0.8-2.11,2.25-2.15c2.55-0.06,5.1-0.02,7.65-0.02
			C205.05,212.07,206.69,212.07,208.33,212.07z"/>
		<path class="st1" d="M208.3,169.96c-4.07,0-8.13-0.01-12.2,0c-1.2,0-2.13-0.37-2.48-1.62c-0.39-1.38,0.35-2.54,1.75-2.78
			c0.3-0.05,0.6-0.04,0.91-0.04c8,0,16.01,0,24.01,0c0.26,0,0.52-0.01,0.78,0.02c1.29,0.17,2.09,1.04,2.08,2.24
			c-0.01,1.25-0.89,2.14-2.26,2.16c-2.47,0.04-4.93,0.02-7.4,0.02C211.76,169.97,210.03,169.96,208.3,169.96z"/>
		<path class="st1" d="M208.3,118.47c4.02,0,8.05,0,12.07,0c1.79,0,2.75,0.78,2.77,2.18c0.01,1.42-0.96,2.24-2.72,2.24
			c-8.09,0.01-16.18,0.01-24.27,0c-1.74,0-2.75-0.99-2.61-2.48c0.13-1.29,0.9-1.93,2.43-1.94
			C200.08,118.46,204.19,118.47,208.3,118.47z"/>
		<g>
			<path class="st1" d="M130.94,177.72c-7.1,0.01-12.74-5.68-12.79-12.93c-0.05-6.99,5.42-12.69,12.3-12.82
				c0.92-0.02,1.72,0.17,2.28,0.96c0.97,1.38,0.17,3.04-1.58,3.17c-0.99,0.08-1.98,0.14-2.94,0.45c-4.17,1.33-6.55,5.48-5.7,9.95
				c0.81,4.26,4.76,7.31,9.12,7.04c4.07-0.25,7.5-3.78,7.8-8.02c0.16-2.2,0.94-3.11,2.55-2.97c1.27,0.1,1.94,0.9,1.92,2.29
				C143.83,171.87,137.95,177.71,130.94,177.72z"/>
			<path class="st1" d="M130.87,224.55c-7.04-0.02-12.62-5.67-12.72-12.87c-0.1-6.91,5.45-12.89,12.23-13.16
				c0.17-0.01,0.35-0.02,0.52-0.01c1.3,0.09,2.25,1.03,2.23,2.24c-0.02,1.13-0.78,1.8-2.17,1.91c-4.13,0.31-7.09,2.46-8.18,6.07
				c-1.07,3.57-0.36,6.8,2.39,9.38c2.53,2.37,5.57,2.94,8.78,1.68c3.48-1.36,5.23-4.07,5.5-7.78c0.02-0.3,0.04-0.61,0.11-0.9
				c0.29-1.24,1.21-1.87,2.49-1.75c1.19,0.12,1.85,0.92,1.86,2.23C143.92,218.6,137.92,224.57,130.87,224.55z"/>
			<path class="st1" d="M130.87,130.93c-6.65-0.02-12.03-5.03-12.68-11.83c-0.58-6.11,4.01-12.05,10.33-13.35
				c0.94-0.19,1.88-0.31,2.83-0.29c1.31,0.03,2.22,0.81,2.31,1.98c0.08,1.08-0.55,1.72-2.02,1.85c-1.29,0.11-2.58,0.18-3.82,0.64
				c-3.84,1.45-6.3,5.33-5.7,9.04c0.68,4.27,4.01,7.33,8.18,7.52c4.06,0.18,7.74-2.66,8.69-6.75c0.15-0.63,0.13-1.29,0.22-1.93
				c0.2-1.41,1.18-2.25,2.46-2.13c1.29,0.12,1.94,0.93,1.94,2.43C143.62,125.22,137.93,130.95,130.87,130.93z"/>
			<path class="st1" d="M146.73,106.42c0.03,0.66-0.27,1.21-0.76,1.68c-4.49,4.31-8.97,8.63-13.46,12.93c-0.9,0.86-1.9,0.6-2.68-0.1
				c-1.38-1.24-2.68-2.58-3.94-3.94c-0.82-0.87-0.75-2.12,0.02-2.93c0.81-0.85,2.06-0.9,3.03-0.06c0.65,0.57,1.29,1.16,1.84,1.82
				c0.54,0.65,0.86,0.53,1.41-0.02c3.52-3.57,7.07-7.11,10.63-10.64c1.12-1.11,2.26-1.23,3.22-0.39
				C146.5,105.2,146.74,105.74,146.73,106.42z"/>
			<path class="st1" d="M131.36,215.12c-0.67,0.06-1.23-0.21-1.71-0.69c-1.19-1.2-2.41-2.37-3.58-3.58
				c-0.95-0.99-0.99-2.27-0.17-3.13c0.88-0.92,2.15-0.88,3.22,0.11c0.79,0.73,1.64,2.15,2.32,2.07c0.88-0.1,1.65-1.37,2.44-2.16
				c2.94-2.93,5.87-5.88,8.82-8.81c1.19-1.18,2.47-1.32,3.41-0.4c0.94,0.93,0.83,2.24-0.34,3.41c-4.06,4.08-8.14,8.14-12.2,12.21
				C132.96,214.76,132.27,215.15,131.36,215.12z"/>
			<path class="st1" d="M131.32,168.6c-0.73,0-1.24-0.28-1.69-0.73c-1.19-1.19-2.4-2.37-3.57-3.58c-0.95-0.99-0.99-2.26-0.16-3.12
				c0.87-0.9,2.16-0.86,3.22,0.13c0.57,0.53,1.15,1.06,1.64,1.66c0.54,0.65,0.88,0.51,1.41-0.03c3.46-3.51,6.96-6.98,10.44-10.46
				c0.37-0.37,0.7-0.8,1.22-0.94c1-0.29,1.92-0.14,2.52,0.78c0.58,0.89,0.55,1.83-0.17,2.63c-0.75,0.84-1.57,1.61-2.36,2.4
				c-3.36,3.36-6.74,6.71-10.07,10.1C133.04,168.16,132.17,168.41,131.32,168.6z"/>
		</g>
		<path class="st1" d="M172.15,105.43c0,1.97-1.69,3.64-3.63,3.61c-2-0.03-3.52-1.5-3.49-3.39c0.03-1.93,1.63-3.52,3.56-3.53
			C170.57,102.1,172.15,103.57,172.15,105.43z"/>
		<path class="st1" d="M168.82,166.45c0.96-0.02,2.34,0.07,3.68,0.43c5.37,1.46,6.75,5.61,6.88,10.03c0.02,0.84-0.63,1.19-1.23,1.52
			c-1.54,0.84-3.23,1.2-4.95,1.44c-4.76,0.67-9.48,0.54-14.06-1.1c-2.1-0.75-2.4-1.31-2.03-3.48
			C158.12,169.31,161.78,166.43,168.82,166.45z"/>
		<path class="st1" d="M168.33,226.74c-3.21,0-6.38-0.29-9.4-1.5c-1.9-0.76-2.08-1.1-1.87-3.1c0.56-5.19,3.96-8.59,9.18-9.09
			c2.55-0.25,5.09-0.15,7.51,0.86c3.61,1.51,6.1,5.78,5.62,9.66c-0.1,0.83-0.73,1.13-1.33,1.44c-2.44,1.25-5.11,1.5-7.78,1.72
			C169.63,226.79,168.98,226.74,168.33,226.74z"/>
		<path class="st1" d="M168.33,133.3c-3.13,0.1-6.21-0.21-9.17-1.32c-2.13-0.8-2.43-1.33-2.04-3.6c0.95-5.61,4.52-8.58,10.59-8.83
			c1.31-0.05,2.6,0.06,3.87,0.31c6.05,1.16,7.7,5.57,7.8,10.2c0.02,0.91-0.67,1.27-1.32,1.59c-2.24,1.13-4.67,1.51-7.14,1.64
			C170.06,133.34,169.19,133.3,168.33,133.3z"/>
		<path class="st1" d="M168.6,156.39c-1.93,0.01-3.55-1.59-3.57-3.54c-0.02-1.97,1.67-3.69,3.61-3.66c1.91,0.03,3.52,1.7,3.51,3.62
			C172.14,154.75,170.52,156.38,168.6,156.39z"/>
		<path class="st1" d="M168.58,195.79c1.96,0,3.55,1.57,3.57,3.52c0.02,2.01-1.61,3.62-3.62,3.6c-1.94-0.02-3.51-1.63-3.5-3.59
			C165.04,197.37,166.62,195.79,168.58,195.79z"/>
	</g>
</g>
</svg>
