<?xml version="1.0" encoding="utf-8"?>
<!-- Generator: Adobe Illustrator 23.0.3, SVG Export Plug-In . SVG Version: 6.00 Build 0)  -->
<svg version="1.1" id="Layer_1" xmlns="http://www.w3.org/2000/svg" xmlns:xlink="http://www.w3.org/1999/xlink" x="0px" y="0px"
	 viewBox="0 0 362 369" style="enable-background:new 0 0 362 369;" xml:space="preserve">
<style type="text/css">
	.st0{fill:#FFFFFF;}
</style>
<g>
	<path class="st0" d="M181,81c-56.89,0-103,46.11-103,103s46.11,103,103,103s103-46.11,103-103S237.89,81,181,81z M181,281
		c-53.57,0-97-43.43-97-97c0-53.57,43.43-97,97-97s97,43.43,97,97C278,237.57,234.57,281,181,281z"/>
	<path class="st0" d="M229.45,224.73c-0.27-0.03-0.55-0.07-0.86-0.16c-0.27-0.07-0.55-0.17-0.85-0.29
		c-6.25-2.43-12.96-3.23-19.38-5.09c-4.92-1.42-9.58-3.1-12.4-7.9c-0.93-1.58-0.98-2.56,0.22-4.05c4.75-5.85,8.41-12.45,12.07-19
		c2-3.58,3.18-7.45-0.7-10.96c-1.11-1-0.5-2.76-0.42-4.17c0.24-4.21,0.65-8.41-0.13-12.62c-0.83-4.48-2.65-8.43-6.05-11.55
		c-6.89-6.3-14.7-10.88-23.99-12.58c-2.48-0.45-4.57,1.23-4.39,3.74c0.14,1.94-0.9,2.63-2.39,3.17c-4.14,1.49-7.77,3.8-10.67,7.12
		c-3.16,3.62-4.83,7.85-4.85,12.69c-0.01,2.88-0.07,5.77,0.02,8.65c0.09,2.71-0.08,5.04-2.18,7.32c-2.39,2.59-1.41,5.95,0.17,8.69
		c3.14,5.43,6.48,10.75,9.91,16c3.02,4.62,1.44,10.82-3.69,13.19c-5.37,2.48-11.19,3.47-16.88,4.86c-3.1,0.75-6.25,1.35-9.19,2.6
		c-0.42,0.18-0.79,0.27-1.13,0.33l0,0.01c-0.02,0-0.04,0-0.06,0c-0.29,0.04-0.57,0.04-0.82,0c-0.13,0-0.26,0-0.39,0
		c-4.1,0.05-6.38,4.85-3.79,8.03c10.98,13.54,25.57,21.81,43.76,24.83c0.6,0.1,1.2,0.27,1.79,0.41h16.68
		c8.57-1.38,16.87-3.65,24.49-7.89c8.56-4.77,15.64-10.6,21.27-17.47c2.14-2.61,0.82-6.56-2.47-7.33
		C231,225.04,230.07,224.85,229.45,224.73z"/>
</g>
</svg>
