<svg width="75" height="75" viewBox="0 0 75 75" fill="none" xmlns="http://www.w3.org/2000/svg">
<g id="Group 115">
<path id="Path 119" d="M0.0889893 37.252C0.0908128 29.9066 2.27224 22.7269 6.35706 16.622C10.4419 10.5171 16.2463 5.76162 23.0355 2.95767C29.8247 0.153719 37.2934 -0.572556 44.4956 0.870754C51.6978 2.31406 58.3097 5.86212 63.4943 11.0656C68.6788 16.269 72.2027 22.8939 73.6198 30.1013C75.0368 37.3088 74.2834 44.7746 71.4547 51.5535C68.626 58.3324 63.8495 64.1196 57.7297 68.1822C51.61 72.2447 44.4224 74.4 37.077 74.375C27.2631 74.3126 17.8708 70.3771 10.9438 63.4248C4.01687 56.4726 0.115682 47.0661 0.0889893 37.252ZM37.153 71.039C43.8326 71.0488 50.3653 69.0781 55.925 65.3759C61.4848 61.6736 65.8222 56.4062 68.3888 50.2393C70.9554 44.0724 71.636 37.283 70.3446 30.7294C69.0532 24.1758 65.8477 18.1521 61.1334 13.4199C56.4191 8.68778 50.4077 5.45956 43.859 4.14334C37.3103 2.82711 30.5185 3.48196 24.3419 6.02517C18.1654 8.56839 12.8815 12.8858 9.1582 18.4315C5.43494 23.9773 3.43938 30.5024 3.42395 37.182C3.40458 41.6228 4.26286 46.0238 5.94946 50.1319C7.63607 54.24 10.1177 57.9743 13.252 61.1204C16.3862 64.2665 20.1112 66.7624 24.2129 68.4645C28.3146 70.1666 32.7121 71.0415 37.153 71.039Z" fill="white"/>
<path id="Path 120" d="M37.14 60.455C32.54 60.455 27.9399 60.455 23.3399 60.455C21.1479 60.455 19.9939 59.308 19.9919 57.126C19.9879 48.8927 19.9859 40.6594 19.9859 32.426C19.8811 31.6635 20.0779 30.8901 20.5345 30.2704C20.9912 29.6507 21.6716 29.2337 22.431 29.108C23.125 28.889 23.0239 28.295 23.0909 27.824C23.3839 25.5109 24.1096 23.2737 25.23 21.229C26.4881 18.733 28.4842 16.685 30.947 15.363C33.4098 14.0411 36.2199 13.5095 38.9953 13.8403C41.7708 14.1712 44.3772 15.3486 46.4602 17.2124C48.5432 19.0763 50.0018 21.5363 50.6379 24.2581C50.9948 25.5146 51.2227 26.8043 51.318 28.1071C51.352 28.6071 51.49 28.987 52.079 29.132C52.7151 29.2503 53.2916 29.5826 53.7129 30.0737C54.1341 30.5649 54.3749 31.1853 54.395 31.832C54.4128 32.0405 54.4201 32.2498 54.417 32.459C54.417 40.6657 54.417 48.8726 54.417 57.08C54.417 58.893 53.617 60.012 52.109 60.366C51.75 60.4348 51.3843 60.4627 51.019 60.449C46.393 60.4563 41.7667 60.4583 37.14 60.455ZM37.24 34.891H26.969C25.917 34.891 25.895 34.91 25.895 35.929C25.895 41.7843 25.895 47.639 25.895 53.493C25.895 54.5201 25.94 54.5649 26.947 54.5649C33.795 54.5649 40.6426 54.5649 47.49 54.5649C48.474 54.5649 48.5229 54.5161 48.5229 53.5551C48.5229 47.6737 48.5229 41.793 48.5229 35.913C48.5229 34.913 48.4999 34.892 47.5119 34.892C44.0879 34.8893 40.664 34.889 37.24 34.891ZM37.1899 29.011C39.6449 29.011 42.1 29.011 44.556 29.011C45.513 29.011 45.5499 28.968 45.4129 28.044C45.3301 27.3974 45.2124 26.7558 45.06 26.122C44.46 23.831 43.431 21.832 41.211 20.669C39.752 20.0044 38.1333 19.7712 36.546 19.997C34.8364 20.1116 33.2212 20.8226 31.982 22.006C30.3898 23.5789 29.3567 25.6302 29.041 27.846C28.822 28.998 28.849 29.011 30.06 29.012C32.4367 29.0133 34.8133 29.013 37.1899 29.011Z" fill="white"/>
</g>
</svg>
