<svg width="233" height="179" viewBox="0 0 233 179" fill="none" xmlns="http://www.w3.org/2000/svg">
<g id="Group 99">
<g id="Group 97">
<path id="Path 101" d="M24.4 0.43103C25.421 0.43103 26.651 2.22098 27.484 7.13098L27.6419 8.41498C30.3039 24.874 45.8009 43.591 61.2419 56.797C76.6829 70.003 90.822 83.953 90.822 83.953C90.822 83.953 96.767 82.093 108.583 71.953C113.634 67.3858 120.214 64.8784 127.023 64.926C131.505 64.926 135.437 65.864 138.439 66.279C138.439 66.279 148.572 62.841 157.224 60.979C157.224 60.979 145.081 69.022 139.785 72.926C139.785 72.926 126.815 89.668 124.435 92.326C124.435 92.326 141.449 105.675 154.758 105.675C155.739 105.678 156.719 105.598 157.687 105.436C169.463 103.424 185.223 97.346 192.422 97.346C193.329 97.3042 194.235 97.4619 195.075 97.808C197.391 98.944 191.018 102.326 185.538 104.856C185.538 104.856 194.05 102.577 197.195 98.881C199.337 96.344 201.72 95.481 203.183 95.481C203.426 95.4493 203.673 95.4749 203.904 95.5558C204.135 95.6367 204.344 95.7707 204.514 95.947C205.07 96.856 205.698 98.808 193.768 105.366C193.768 105.366 201.858 102.016 204.303 99.785C206.23 98.023 208.898 96.608 210.761 96.608C211.211 96.5908 211.657 96.7017 212.046 96.928C213.717 97.973 209.953 101.67 198.859 106.549C201.491 106.149 204.053 105.375 206.466 104.249C209.366 102.805 216.085 98.988 220.944 98.988C221.862 98.9665 222.774 99.1436 223.618 99.507C228.299 101.67 215.326 104.178 207.448 106.968C207.448 106.968 207.943 107.017 208.763 107.017C210.864 107.023 212.955 106.725 214.971 106.133C217.924 105.233 223.223 103.347 226.662 103.347C227.585 103.27 228.506 103.515 229.269 104.04C231.386 105.84 225.095 107.197 216.409 108.999C219.447 108.412 222.529 108.085 225.622 108.022C229.428 108.022 232.689 108.775 232.971 111.295C232.971 111.295 232.463 111.28 231.539 111.28C222.88 111.298 214.247 112.207 205.774 113.993C196.112 115.966 186.269 116.916 176.408 116.827C155.464 116.829 134.692 113.05 115.091 105.674C108.948 107.883 103.083 110.8 97.614 114.366C93.9164 116.745 89.7681 118.337 85.4279 119.041L85.477 119.102C85.416 119.156 79.211 124.141 77.452 128.617L77.3929 128.767L77.3599 128.793C77.2309 129.061 75.6429 130.946 75.5699 138.359C75.6459 130.715 75.631 128.509 75.931 127.951C77.244 124.674 80.5139 121.316 82.6009 119.403C81.6799 119.48 80.744 119.521 79.801 119.521C77.4543 119.522 75.1145 119.268 72.823 118.762C71.167 120.188 66.872 124.12 65.458 127.726L65.4 127.871L65.369 127.899C65.238 128.166 63.6559 130.057 63.5689 137.467C63.6579 129.82 63.639 127.617 63.946 127.06C65.31 123.641 68.813 120.13 70.875 118.268C67.8608 117.398 64.9932 116.084 62.3669 114.368C57.5683 111.201 51.9405 109.524 46.191 109.547C39.0403 109.688 32.0739 111.841 26.0909 115.76L15.4909 103.95C15.4909 103.95 49.8989 103.393 63.11 96.325C63.11 96.325 40.6929 94.837 36.8769 79.308C36.8769 79.308 31.6699 78.187 32.6889 71.303C32.6889 71.303 27.108 68.887 28.228 63.029C28.228 63.029 25.071 62.193 24.228 59.314C24.0477 58.5735 24.0704 57.7981 24.2939 57.0695C24.5174 56.3408 24.9335 55.686 25.498 55.174C25.498 55.174 19.483 52.706 16.598 48.243C14.983 45.737 15.736 43.675 18.098 43.675C19.8034 43.814 21.4345 44.4329 22.8029 45.46C24.3423 46.6059 25.9689 47.6297 27.6679 48.522C27.6679 48.522 25.8539 45.734 18.4589 42.289C13.4589 39.96 12.1339 36.071 15.3289 36.071C16.8519 36.071 19.401 36.959 23.06 39.31C26.114 41.274 28.424 41.81 29.666 42.61C29.666 42.61 27.3899 39.636 18.0429 34.753C10.4819 30.803 11.93 27.341 14.821 27.347C15.5957 27.3565 16.3543 27.5693 17.021 27.964C20.503 29.952 23.7699 34.519 28.5579 35.449C28.5579 35.449 17.538 25.729 14.237 21.31C12.343 18.785 12.866 15.841 14.879 15.841C16.379 15.841 18.6969 17.483 21.4539 22.153C26.2939 30.344 28.754 31.646 30.394 32.288C30.394 32.288 24.278 21.497 19.162 15.454C15.595 11.238 16.448 8.02002 18.327 8.02002C19.147 8.02002 20.151 8.62001 21.081 10.015C24.14 14.615 25.8349 15.64 31.6939 27.779C31.6939 27.779 24.794 12.898 23.021 7.12903C22.002 3.79703 22.999 0.429016 24.404 0.429016" fill="#28A8E0"/>
</g>
<g id="Group 98">
<path id="Path 102" d="M114.635 114.04V159.253C114.633 160.661 114.072 162.011 113.077 163.007C112.081 164.002 110.731 164.563 109.323 164.565H19.7C18.2925 164.562 16.9436 164.001 15.9487 163.005C14.9539 162.01 14.3941 160.66 14.392 159.253V69.633C14.3945 68.4013 14.8247 67.2087 15.609 66.259C16.3933 65.3093 17.483 64.6614 18.692 64.426L13.653 56.006L11.976 51.643C8.45765 53.1555 5.45932 55.6651 3.35083 58.8621C1.24234 62.059 0.115991 65.8034 0.110962 69.633V159.253C0.118107 164.447 2.18491 169.427 5.85803 173.099C9.53116 176.772 14.5108 178.838 19.705 178.844H109.323C114.517 178.838 119.497 176.772 123.17 173.099C126.842 169.427 128.908 164.447 128.914 159.253V117.364L114.635 114.04Z" fill="#F79421"/>
</g>
</g>
</svg>
