<?xml version="1.0" encoding="utf-8"?>
<!-- Generator: Adobe Illustrator 23.0.3, SVG Export Plug-In . SVG Version: 6.00 Build 0)  -->
<svg version="1.1" id="Layer_1" xmlns="http://www.w3.org/2000/svg" xmlns:xlink="http://www.w3.org/1999/xlink" x="0px" y="0px"
	 viewBox="0 0 614 178" style="enable-background:new 0 0 614 178;" xml:space="preserve">
<style type="text/css">
	.st0{fill:#28A8E0;}
	.st1{fill:#F79421;}
</style>
<g>
	<g>
		<path class="st0" d="M86.43,85.6h25.16v13.49H86.43v22.61H69.99V60.02h43.75v13.49h-27.3V85.6z"/>
	</g>
	<g>
		<path class="st0" d="M139.11,95.31c0-0.77-0.01-1.53-0.04-2.3c-0.03-0.77-0.16-1.45-0.38-2.06c-0.21-0.61-0.57-1.1-1.07-1.48
			c-0.49-0.38-1.23-0.58-2.22-0.58c-1.1,0-1.97,0.19-2.63,0.58c-0.66,0.38-1.19,0.9-1.61,1.56c-0.41,0.66-0.68,1.4-0.82,2.22
			c-0.14,0.82-0.21,1.67-0.21,2.55v25.9H116V78.53h13.74v6.33h0.58c0.94-2.47,2.32-4.22,4.15-5.26c1.84-1.04,4.07-1.57,6.7-1.57
			c2.47,0,4.41,0.46,5.84,1.4c1.43,0.94,2.5,2.14,3.21,3.62c0.71,1.48,1.16,3.18,1.35,5.1c0.19,1.92,0.28,3.87,0.28,5.84v3.37
			h-12.74V95.31z"/>
	</g>
	<g>
		<path class="st0" d="M196.24,107.31c0,3.29-0.51,5.89-1.52,7.81c-1.01,1.92-2.45,3.43-4.32,4.53c-1.86,1.04-4.08,1.73-6.66,2.05
			c-2.58,0.33-5.43,0.5-8.55,0.5c-4.28,0-7.78-0.4-10.49-1.19c-2.72-0.8-4.87-2.06-6.46-3.78c-1.59-1.73-2.69-3.99-3.29-6.79
			c-0.6-2.79-0.9-6.22-0.9-10.28c0-4.17,0.29-7.66,0.86-10.48c0.57-2.83,1.64-5.1,3.2-6.83c1.56-1.73,3.72-2.96,6.46-3.7
			c2.74-0.74,6.27-1.11,10.61-1.11c4.05,0,7.42,0.33,10.11,0.99c2.69,0.66,4.84,1.82,6.46,3.49c1.61,1.67,2.76,3.93,3.45,6.78
			c0.68,2.86,1.02,6.47,1.02,10.86v2.39H168.2c0,1.92,0.1,3.49,0.29,4.73c0.19,1.23,0.53,2.24,1.03,3.01c0.5,0.76,1.19,1.3,2.1,1.6
			c0.9,0.3,2.1,0.45,3.58,0.45c1.09,0,2.08-0.05,2.95-0.16c0.88-0.11,1.63-0.33,2.26-0.66c0.63-0.33,1.11-0.82,1.44-1.48
			c0.34-0.66,0.5-1.56,0.5-2.71H196.24z M182.1,94.73c0-1.59-0.15-2.84-0.45-3.74c-0.3-0.9-0.75-1.59-1.36-2.06
			c-0.6-0.46-1.35-0.75-2.22-0.86c-0.88-0.11-1.92-0.16-3.12-0.16c-1.26,0-2.31,0.1-3.16,0.29c-0.86,0.19-1.54,0.53-2.06,1.03
			c-0.52,0.49-0.89,1.18-1.11,2.06c-0.22,0.88-0.35,2.03-0.41,3.45H182.1z"/>
	</g>
	<g>
		<path class="st0" d="M240.62,107.31c0,3.29-0.5,5.89-1.52,7.81c-1.01,1.92-2.45,3.43-4.32,4.53c-1.86,1.04-4.08,1.73-6.66,2.05
			c-2.58,0.33-5.43,0.5-8.55,0.5c-4.28,0-7.78-0.4-10.49-1.19c-2.72-0.8-4.86-2.06-6.46-3.78c-1.59-1.73-2.69-3.99-3.29-6.79
			c-0.61-2.79-0.91-6.22-0.91-10.28c0-4.17,0.29-7.66,0.86-10.48c0.58-2.83,1.65-5.1,3.21-6.83c1.56-1.73,3.71-2.96,6.46-3.7
			c2.74-0.74,6.27-1.11,10.61-1.11c4.05,0,7.42,0.33,10.11,0.99c2.69,0.66,4.84,1.82,6.46,3.49c1.61,1.67,2.76,3.93,3.45,6.78
			c0.68,2.86,1.02,6.47,1.02,10.86v2.39h-28.04c0,1.92,0.08,3.49,0.28,4.73c0.19,1.23,0.54,2.24,1.03,3.01
			c0.5,0.76,1.19,1.3,2.1,1.6c0.91,0.3,2.1,0.45,3.58,0.45c1.09,0,2.08-0.05,2.95-0.16c0.88-0.11,1.63-0.33,2.26-0.66
			c0.63-0.33,1.12-0.82,1.44-1.48c0.33-0.66,0.49-1.56,0.49-2.71H240.62z M226.48,94.73c0-1.59-0.15-2.84-0.45-3.74
			c-0.31-0.9-0.76-1.59-1.36-2.06c-0.6-0.46-1.34-0.75-2.22-0.86c-0.88-0.11-1.91-0.16-3.12-0.16c-1.26,0-2.31,0.1-3.16,0.29
			c-0.85,0.19-1.54,0.53-2.06,1.03c-0.52,0.49-0.89,1.18-1.11,2.06c-0.22,0.88-0.36,2.03-0.41,3.45H226.48z"/>
	</g>
	<g>
		<path class="st0" d="M259.35,121.7h-14.15V60.02h14.15V121.7z"/>
	</g>
	<g>
		<path class="st0" d="M291.46,115.29h-0.49c-0.28,1.48-0.84,2.67-1.69,3.58c-0.85,0.91-1.87,1.6-3.04,2.1
			c-1.18,0.5-2.45,0.82-3.82,0.98c-1.37,0.17-2.67,0.25-3.87,0.25c-2.47,0-4.67-0.18-6.62-0.54c-1.95-0.35-3.58-1.02-4.89-2.01
			c-1.32-0.98-2.33-2.36-3.05-4.11c-0.71-1.76-1.06-4-1.06-6.74c0-2.58,0.33-4.74,0.98-6.49c0.66-1.76,1.65-3.15,2.96-4.2
			c1.32-1.04,2.95-1.78,4.9-2.22c1.94-0.44,4.2-0.66,6.78-0.66c0.99,0,2.08,0.03,3.3,0.08c1.2,0.05,2.37,0.22,3.49,0.49
			c1.12,0.28,2.14,0.75,3.04,1.44c0.9,0.69,1.55,1.63,1.93,2.84h0.66v-6.83c0-0.98-0.04-1.89-0.12-2.71
			c-0.09-0.82-0.33-1.52-0.74-2.1c-0.42-0.57-1.06-1.02-1.94-1.32c-0.88-0.3-2.09-0.45-3.62-0.45c-1.76,0-3.16,0.3-4.2,0.9
			c-1.04,0.61-1.56,1.87-1.56,3.78h-14.14c0-3.34,0.56-5.92,1.69-7.73c1.12-1.81,2.61-3.13,4.48-3.95c1.87-0.83,3.99-1.3,6.38-1.44
			c2.38-0.14,4.83-0.21,7.36-0.21c3.62,0,6.72,0.18,9.33,0.54c2.6,0.35,4.73,1.11,6.37,2.26c1.64,1.15,2.87,2.82,3.66,5.01
			c0.8,2.19,1.19,5.15,1.19,8.88v26.97h-14.14L291.46,115.29z M278.84,104.63c-1.18,0.52-1.77,1.77-1.77,3.74
			c0,1.16,0.21,2.06,0.66,2.71c0.44,0.66,0.97,1.13,1.6,1.4c0.62,0.27,1.29,0.44,2.01,0.5c0.71,0.05,1.34,0.08,1.89,0.08
			c1.48,0,2.71-0.06,3.7-0.2c0.99-0.14,1.78-0.38,2.38-0.74c0.61-0.36,1.03-0.87,1.28-1.56c0.25-0.68,0.37-1.61,0.37-2.76
			c0-1.81-0.71-2.92-2.14-3.33c-1.42-0.41-3.29-0.62-5.59-0.62C281.48,103.86,280.01,104.12,278.84,104.63z"/>
	</g>
	<g>
		<path class="st0" d="M323.9,78.53v8.06h0.57c1.05-3.4,2.62-5.68,4.74-6.83c2.1-1.15,4.83-1.73,8.18-1.73
			c4.82,0,8.35,1.14,10.56,3.41c2.22,2.28,3.33,5.74,3.33,10.41v29.85h-14.14V95.14c-0.06-2.08-0.47-3.64-1.24-4.69
			c-0.76-1.04-2.3-1.56-4.61-1.56c-1.59,0-2.86,0.22-3.82,0.66c-0.96,0.44-1.71,1.07-2.26,1.89c-0.55,0.83-0.91,1.78-1.06,2.88
			c-0.17,1.1-0.25,2.3-0.25,3.62v23.76h-14.14V78.53H323.9z"/>
	</g>
	<g>
		<path class="st0" d="M397.24,104.43c0,4.06-0.37,7.25-1.11,9.58c-0.75,2.33-1.96,4.1-3.66,5.3c-1.64,1.26-3.78,2.06-6.41,2.38
			c-2.64,0.33-5.87,0.5-9.71,0.5c-4.17,0-7.6-0.36-10.28-1.07c-2.69-0.71-4.8-1.9-6.33-3.58c-1.54-1.67-2.59-3.91-3.16-6.74
			c-0.58-2.82-0.86-6.37-0.86-10.65c0-3.67,0.25-6.88,0.74-9.62c0.5-2.74,1.48-5.04,2.96-6.91c1.48-1.86,3.56-3.26,6.25-4.2
			c2.69-0.94,6.25-1.4,10.69-1.4c3.12,0,5.96,0.15,8.51,0.45c2.55,0.3,4.75,1.02,6.58,2.14c1.84,1.13,3.26,2.8,4.27,5.02
			c1.02,2.22,1.53,5.25,1.53,9.09h-14.14c0.05-1.16,0-2.1-0.17-2.84c-0.17-0.74-0.49-1.33-0.99-1.77c-0.88-0.82-2.74-1.23-5.59-1.23
			c-1.26,0-2.3,0.12-3.13,0.37c-0.82,0.25-1.48,0.77-1.98,1.56c-0.49,0.79-0.85,1.93-1.06,3.42c-0.23,1.48-0.33,3.45-0.33,5.92
			c0,2.52,0.08,4.52,0.25,6c0.16,1.48,0.5,2.61,0.99,3.37c0.49,0.77,1.16,1.26,2.01,1.48c0.85,0.22,1.93,0.33,3.25,0.33
			c1.59,0,2.84-0.11,3.74-0.33c0.91-0.22,1.57-0.59,2.01-1.11c0.44-0.52,0.71-1.24,0.82-2.15c0.11-0.9,0.17-2.01,0.17-3.33H397.24z"
			/>
	</g>
	<g>
		<path class="st0" d="M442.55,107.31c0,3.29-0.51,5.89-1.52,7.81c-1.02,1.92-2.45,3.43-4.32,4.53c-1.86,1.04-4.08,1.73-6.66,2.05
			c-2.57,0.33-5.43,0.5-8.55,0.5c-4.27,0-7.77-0.4-10.48-1.19c-2.72-0.8-4.86-2.06-6.46-3.78c-1.59-1.73-2.69-3.99-3.29-6.79
			c-0.61-2.79-0.91-6.22-0.91-10.28c0-4.17,0.29-7.66,0.86-10.48c0.57-2.83,1.64-5.1,3.21-6.83c1.56-1.73,3.71-2.96,6.45-3.7
			c2.74-0.74,6.28-1.11,10.6-1.11c4.06,0,7.43,0.33,10.12,0.99c2.68,0.66,4.83,1.82,6.46,3.49c1.62,1.67,2.76,3.93,3.45,6.78
			c0.68,2.86,1.03,6.47,1.03,10.86v2.39h-28.04c0,1.92,0.09,3.49,0.29,4.73c0.18,1.23,0.54,2.24,1.02,3.01c0.5,0.76,1.2,1.3,2.1,1.6
			c0.91,0.3,2.1,0.45,3.57,0.45c1.1,0,2.08-0.05,2.96-0.16c0.88-0.11,1.63-0.33,2.27-0.66c0.62-0.33,1.11-0.82,1.43-1.48
			c0.33-0.66,0.5-1.56,0.5-2.71H442.55z M428.4,94.73c0-1.59-0.15-2.84-0.46-3.74c-0.3-0.9-0.75-1.59-1.35-2.06
			c-0.6-0.46-1.34-0.75-2.23-0.86c-0.87-0.11-1.91-0.16-3.12-0.16c-1.26,0-2.32,0.1-3.16,0.29c-0.85,0.19-1.53,0.53-2.06,1.03
			c-0.52,0.49-0.89,1.18-1.11,2.06c-0.22,0.88-0.35,2.03-0.41,3.45H428.4z"/>
	</g>
	<g>
		<path class="st1" d="M529.39,121.7h-16.45V74.33h-15.79V60.02H546v14.31h-16.61V121.7z"/>
	</g>
	<g>
		<polygon class="st0" points="493.04,60.02 476.59,60.02 476.59,74.33 		"/>
	</g>
	<g>
		<rect x="476.59" y="77.19" class="st1" width="16.45" height="44.51"/>
	</g>
</g>
</svg>
