<svg width="75" height="76" viewBox="0 0 75 76" fill="none" xmlns="http://www.w3.org/2000/svg">
<g id="Group 114">
<path id="Path 115" d="M0.0889893 37.986C0.0908128 30.6406 2.27224 23.4609 6.35706 17.356C10.4419 11.2511 16.2463 6.49563 23.0355 3.69168C29.8247 0.887727 37.2934 0.161452 44.4956 1.60476C51.6978 3.04807 58.3097 6.59607 63.4943 11.7995C68.6788 17.003 72.2027 23.6279 73.6198 30.8354C75.0368 38.0428 74.2834 45.5086 71.4547 52.2875C68.626 59.0664 63.8495 64.8536 57.7297 68.9162C51.61 72.9787 44.4224 75.134 37.077 75.109C27.2631 75.0466 17.8708 71.1111 10.9438 64.1588C4.01687 57.2066 0.115682 47.8001 0.0889893 37.986ZM37.153 71.773C43.8326 71.7828 50.3654 69.8122 55.9252 66.1099C61.485 62.4076 65.8223 57.14 68.3889 50.973C70.9555 44.8061 71.636 38.0167 70.3445 31.463C69.053 24.9094 65.8474 18.8858 61.1331 14.1537C56.4187 9.42152 50.4072 6.19333 43.8584 4.87722C37.3096 3.56111 30.5177 4.21618 24.3412 6.75955C18.1646 9.30292 12.8809 13.6204 9.15771 19.1663C5.43457 24.7122 3.43918 31.2373 3.42395 37.917C3.40472 42.3577 4.26317 46.7585 5.94983 50.8665C7.63649 54.9745 10.1181 58.7088 13.2523 61.8548C16.3865 65.0008 20.1115 67.4965 24.2131 69.1986C28.3148 70.9007 32.7122 71.7755 37.153 71.773Z" fill="white"/>
<path id="Path 116" d="M37.481 68.743C28.042 68.514 20.3221 65.105 14.1441 58.272C13.9015 58.0231 13.7456 57.7028 13.6995 57.3584C13.6534 57.014 13.7194 56.6638 13.888 56.36C16.658 49.417 21.664 44.9809 29.068 43.9339C34.7237 43.0577 40.4839 43.1033 46.125 44.069C53.152 45.369 57.88 49.7129 60.518 56.3459C60.6879 56.6905 60.7402 57.0812 60.6669 57.4584C60.5936 57.8355 60.3987 58.1782 60.1121 58.4339C57.4134 61.4847 54.1274 63.9604 50.4506 65.7129C46.7738 67.4654 42.7814 68.4589 38.7121 68.634C38.2141 68.656 37.713 68.721 37.481 68.743Z" fill="white"/>
<path id="Path 117" d="M37.1999 13.461C39.8846 13.4612 42.5089 14.2586 44.7399 15.752C46.9709 17.2453 48.7083 19.3674 49.7318 21.8493C50.7554 24.3312 51.019 27.0611 50.4893 29.693C49.9595 32.3249 48.6602 34.7403 46.7562 36.6329C44.8522 38.5256 42.4291 39.8103 39.7941 40.3242C37.159 40.8382 34.4308 40.5582 31.9551 39.5198C29.4793 38.4814 27.3676 36.7314 25.8877 34.4915C24.4077 32.2515 23.6261 29.6226 23.642 26.938C23.6787 23.361 25.1215 19.9422 27.6584 17.4204C30.1954 14.8986 33.6228 13.4763 37.1999 13.461Z" fill="white"/>
</g>
</svg>
