<?xml version="1.0" encoding="utf-8"?>
<!-- Generator: Adobe Illustrator 23.0.3, SVG Export Plug-In . SVG Version: 6.00 Build 0)  -->
<svg version="1.1" id="Layer_1" xmlns="http://www.w3.org/2000/svg" xmlns:xlink="http://www.w3.org/1999/xlink" x="0px" y="0px"
	 viewBox="0 0 328 339" style="enable-background:new 0 0 328 339;" xml:space="preserve">
<style type="text/css">
	.st0{fill:#28A8E0;}
	.st1{fill:#FFFFFF;}
</style>
<path class="st0" d="M172.81,48.73c-68.48,0-124,55.52-124,124c0,68.48,55.52,124,124,124s124-55.52,124-124
	C296.81,104.25,241.29,48.73,172.81,48.73z M172.81,275.73c-56.89,0-103-46.11-103-103s46.11-103,103-103s103,46.11,103,103
	S229.69,275.73,172.81,275.73z"/>
<circle class="st0" cx="172.81" cy="172.73" r="97"/>
<g>
	<path class="st1" d="M172.81,69.73c-56.89,0-103,46.11-103,103s46.11,103,103,103s103-46.11,103-103S229.69,69.73,172.81,69.73z
		 M172.81,269.73c-53.57,0-97-43.43-97-97c0-53.57,43.43-97,97-97s97,43.43,97,97C269.81,226.3,226.38,269.73,172.81,269.73z"/>
	<g>
		<path class="st1" d="M123.29,164.75c0-17.74-0.01-35.48,0.01-53.22c0.01-6.31,1.45-7.74,7.79-7.75
			c17.74-0.02,35.48,0.04,53.22-0.05c2.83-0.02,4.94,0.78,6.92,2.83c6.5,6.72,13.1,13.34,19.79,19.89c2.02,1.98,2.88,4.09,2.86,6.92
			c-0.1,14.85,0.06,29.71-0.13,44.55c-0.05,3.55,0.97,5.28,4.41,6.62c14.28,5.58,22.45,19.28,21.2,34.75
			c-1.16,14.32-12.25,26.65-26.82,29.83c-15.04,3.29-30.48-4.23-37.34-18.51c-1.47-3.06-3.14-4.18-6.52-4.13
			c-12.65,0.19-25.3,0.1-37.95,0.07c-5.76-0.01-7.41-1.64-7.42-7.33C123.28,201.06,123.29,182.91,123.29,164.75z M127.63,164.98
			c0,17.46,0.02,34.93-0.02,52.39c-0.01,2.76,0.3,4.87,3.9,4.84c12.38-0.09,24.75-0.05,37.13-0.02c2.4,0.01,3.5-0.86,3.28-3.45
			c-1.9-22.26,17.15-37.59,33.73-36.5c2.95,0.19,3.83-1.14,3.82-3.89c-0.07-14.03-0.07-28.05,0-42.08c0.01-2.77-0.95-4.01-3.85-3.93
			c-4.81,0.14-9.63,0.05-14.44,0.03c-5.61-0.03-5.91-0.32-5.94-5.76c-0.02-4.68-0.2-9.36,0.06-14.02c0.2-3.67-0.85-5.05-4.8-5
			c-15.81,0.22-31.63,0.08-47.44,0.09c-5.12,0-5.41,0.27-5.42,5.32C127.61,130.32,127.63,147.65,127.63,164.98z M235.06,216.18
			c0.13-16.47-12.97-29.95-29.21-30.05c-16.17-0.1-29.88,13.4-29.99,29.54c-0.11,16.22,13.3,29.91,29.46,30.08
			C221.53,245.92,234.93,232.6,235.06,216.18z M189.66,112.59c0,4.34-0.02,8.44,0.01,12.53c0.01,1.58,0.75,2.71,2.43,2.72
			c4.3,0.03,8.64,0.48,12.71-0.24C199.82,122.65,194.93,117.81,189.66,112.59z"/>
		<path class="st1" d="M168.25,145.6c-8.11,0-16.23,0.04-24.34-0.03c-1.8-0.01-4.49,0.56-4.47-2.21c0.02-2.35,2.52-2.12,4.25-2.12
			c16.64-0.04,33.28-0.04,49.92,0.01c1.71,0,4.15-0.19,4.06,2.3c-0.1,2.47-2.55,2.03-4.25,2.04
			C185.03,145.63,176.64,145.6,168.25,145.6z"/>
		<path class="st1" d="M168.16,157.05c-7.84,0-15.68,0.01-23.52-0.02c-1.23,0-2.48-0.08-3.67-0.34c-0.98-0.21-1.72-0.9-1.62-2.07
			c0.09-0.93,0.73-1.54,1.57-1.69c1.21-0.22,2.45-0.31,3.68-0.31c15.96-0.02,31.91-0.01,47.87-0.01c0.96,0,1.93-0.02,2.88,0.11
			c1.3,0.18,2.51,0.68,2.39,2.26c-0.1,1.32-1.22,1.84-2.35,1.91c-2.33,0.14-4.67,0.15-7.01,0.15
			C181.64,157.06,174.9,157.05,168.16,157.05z"/>
		<path class="st1" d="M168.52,179.46c-7.84,0-15.68,0-23.51,0c-1.1,0-2.2,0-3.3-0.1c-1.15-0.11-2.24-0.54-2.34-1.88
			c-0.12-1.62,1.15-2.05,2.41-2.26c0.94-0.16,1.92-0.15,2.88-0.15c15.95-0.01,31.9-0.01,47.85,0c0.69,0,1.38-0.03,2.06,0.06
			c1.5,0.2,3.31,0.31,3.13,2.41c-0.16,1.76-1.79,1.88-3.18,1.89c-8.66,0.03-17.33,0.01-25.99,0.01
			C168.52,179.44,168.52,179.45,168.52,179.46z"/>
		<path class="st1" d="M168.15,168.01c-8.11,0-16.22,0.04-24.32-0.03c-1.64-0.01-4.22,0.68-4.33-1.81c-0.12-2.56,2.44-2.04,4.1-2.05
			c16.63-0.04,33.25-0.03,49.88-0.02c0.69,0,1.38,0,2.06,0.08c1.17,0.14,2.24,0.58,2.17,1.97c-0.07,1.37-1.19,1.78-2.35,1.79
			c-4.53,0.06-9.07,0.07-13.6,0.08C177.22,168.02,172.68,168.01,168.15,168.01z"/>
		<path class="st1" d="M156.35,190.88c-4.52,0-9.04,0.03-13.55-0.02c-1.52-0.02-3.36-0.19-3.42-2.13c-0.06-2,1.76-2.21,3.29-2.21
			c9.03-0.03,18.07-0.04,27.1,0.01c1.53,0.01,3.34,0.25,3.2,2.28c-0.14,1.94-1.98,2.04-3.49,2.06
			C165.11,190.92,160.73,190.88,156.35,190.88z"/>
		<path class="st1" d="M152.1,201.81c-3.42,0-6.83,0.04-10.25-0.02c-1.3-0.02-2.59-0.42-2.45-2.07c0.11-1.33,1.26-1.71,2.42-1.71
			c6.97-0.03,13.94-0.03,20.9,0c1.33,0.01,2.55,0.45,2.43,2.09c-0.1,1.38-1.25,1.69-2.4,1.7
			C159.2,201.83,155.65,201.81,152.1,201.81z"/>
		<path class="st1" d="M223.17,207.18c-0.35,0.57-0.74,1.47-1.34,2.18c-5.4,6.39-10.89,12.71-16.23,19.15
			c-1.91,2.3-3.64,2.45-5.89,0.55c-3.15-2.65-6.47-5.1-9.64-7.71c-1.21-1-3.1-2.15-1.52-3.97c1.52-1.75,3-0.12,4.26,0.82
			c2.3,1.73,4.62,3.46,6.77,5.37c1.99,1.77,3.44,1.57,5.11-0.47c4.54-5.5,9.19-10.92,13.85-16.32c0.94-1.09,1.88-2.57,3.75-1.65
			C222.94,205.47,223.18,206.13,223.17,207.18z"/>
	</g>
</g>
</svg>
